<svg xmlns="http://www.w3.org/2000/svg" width="880" height="168" viewBox="0 0 880 168" role="img" aria-labelledby="title desc">
<title>Uptown Funk - Ride Groove</title>
<desc>Drum set staff notation showing hi-hat, snare, and kick placements.</desc>
<style>
.page{fill:#fff}.staff{stroke:#111;stroke-width:1.2}.barline{stroke:#111;stroke-width:1.8}.beat{stroke:#b9bec7;stroke-width:1;stroke-dasharray:3 5}.clef,.stem,.note{stroke:#111;stroke-width:2;stroke-linecap:round}.filled-note{fill:#111}.open{fill:none;stroke:#111;stroke-width:1.6}.count,.voice-label,.mark{font-family:Arial,Helvetica,sans-serif;fill:#111}.count{font-size:13px;text-anchor:middle}.voice-label{font-size:11px;text-anchor:start}.mark{font-size:10px}
</style>
<rect width="880" height="168" class="page" />
<line x1="72" y1="68" x2="72" y2="108" class="clef" />
<line x1="80" y1="68" x2="80" y2="108" class="clef" />
<text x="22" y="36" class="voice-label">Crash</text>
<text x="22" y="44" class="voice-label">Ride</text>
<text x="22" y="52" class="voice-label">Hi-hat</text>
<text x="22" y="92" class="voice-label">Snare</text>
<text x="22" y="116" class="voice-label">Kick</text>
<line x1="116" y1="64" x2="476" y2="64" class="staff" />
<line x1="116" y1="76" x2="476" y2="76" class="staff" />
<line x1="116" y1="88" x2="476" y2="88" class="staff" />
<line x1="116" y1="100" x2="476" y2="100" class="staff" />
<line x1="116" y1="112" x2="476" y2="112" class="staff" />
<line x1="116" y1="64" x2="116" y2="112" class="barline" />
<line x1="476" y1="64" x2="476" y2="112" class="barline" />
<line x1="134.0" y1="40" x2="134.0" y2="142" class="beat" />
<line x1="227.14285714285714" y1="40" x2="227.14285714285714" y2="142" class="beat" />
<line x1="320.2857142857143" y1="40" x2="320.2857142857143" y2="142" class="beat" />
<line x1="413.42857142857144" y1="40" x2="413.42857142857144" y2="142" class="beat" />
<text x="134.0" y="154" class="count">1</text>
<text x="180.57142857142856" y="154" class="count">&amp;</text>
<text x="227.14285714285714" y="154" class="count">2</text>
<text x="273.7142857142857" y="154" class="count">&amp;</text>
<text x="320.2857142857143" y="154" class="count">3</text>
<text x="366.8571428571429" y="154" class="count">&amp;</text>
<text x="413.42857142857144" y="154" class="count">4</text>
<text x="460.0" y="154" class="count">&amp;</text>
<line x1="492" y1="64" x2="852" y2="64" class="staff" />
<line x1="492" y1="76" x2="852" y2="76" class="staff" />
<line x1="492" y1="88" x2="852" y2="88" class="staff" />
<line x1="492" y1="100" x2="852" y2="100" class="staff" />
<line x1="492" y1="112" x2="852" y2="112" class="staff" />
<line x1="492" y1="64" x2="492" y2="112" class="barline" />
<line x1="852" y1="64" x2="852" y2="112" class="barline" />
<line x1="510.0" y1="40" x2="510.0" y2="142" class="beat" />
<line x1="603.1428571428571" y1="40" x2="603.1428571428571" y2="142" class="beat" />
<line x1="696.2857142857142" y1="40" x2="696.2857142857142" y2="142" class="beat" />
<line x1="789.4285714285714" y1="40" x2="789.4285714285714" y2="142" class="beat" />
<text x="510.0" y="154" class="count">1</text>
<text x="556.5714285714286" y="154" class="count">&amp;</text>
<text x="603.1428571428571" y="154" class="count">2</text>
<text x="649.7142857142858" y="154" class="count">&amp;</text>
<text x="696.2857142857142" y="154" class="count">3</text>
<text x="742.8571428571429" y="154" class="count">&amp;</text>
<text x="789.4285714285714" y="154" class="count">4</text>
<text x="836.0" y="154" class="count">&amp;</text>
<path d="M180.57142857142856 31 L189.57142857142856 40 L180.57142857142856 49 L171.57142857142856 40 Z" class="filled-note" />
<path d="M273.7142857142857 31 L282.7142857142857 40 L273.7142857142857 49 L264.7142857142857 40 Z" class="filled-note" />
<path d="M366.8571428571429 31 L375.8571428571429 40 L366.8571428571429 49 L357.8571428571429 40 Z" class="filled-note" />
<path d="M460.0 31 L469.0 40 L460.0 49 L451.0 40 Z" class="filled-note" />
<ellipse cx="227.14285714285714" cy="88" rx="8" ry="6" class="filled-note" transform="rotate(-20 227.14285714285714 88)" />
<line x1="234.14285714285714" y1="88" x2="234.14285714285714" y2="62" class="stem" />
<ellipse cx="413.42857142857144" cy="88" rx="8" ry="6" class="filled-note" transform="rotate(-20 413.42857142857144 88)" />
<line x1="420.42857142857144" y1="88" x2="420.42857142857144" y2="62" class="stem" />
<ellipse cx="134.0" cy="112" rx="8" ry="6" class="filled-note" transform="rotate(-20 134.0 112)" />
<line x1="127.0" y1="112" x2="127.0" y2="136" class="stem" />
<ellipse cx="320.2857142857143" cy="112" rx="8" ry="6" class="filled-note" transform="rotate(-20 320.2857142857143 112)" />
<line x1="313.2857142857143" y1="112" x2="313.2857142857143" y2="136" class="stem" />
<path d="M556.5714285714286 31 L565.5714285714286 40 L556.5714285714286 49 L547.5714285714286 40 Z" class="filled-note" />
<path d="M649.7142857142858 31 L658.7142857142858 40 L649.7142857142858 49 L640.7142857142858 40 Z" class="filled-note" />
<path d="M742.8571428571429 31 L751.8571428571429 40 L742.8571428571429 49 L733.8571428571429 40 Z" class="filled-note" />
<path d="M836.0 31 L845.0 40 L836.0 49 L827.0 40 Z" class="filled-note" />
<ellipse cx="603.1428571428571" cy="88" rx="8" ry="6" class="filled-note" transform="rotate(-20 603.1428571428571 88)" />
<line x1="610.1428571428571" y1="88" x2="610.1428571428571" y2="62" class="stem" />
<ellipse cx="789.4285714285714" cy="88" rx="8" ry="6" class="filled-note" transform="rotate(-20 789.4285714285714 88)" />
<line x1="796.4285714285714" y1="88" x2="796.4285714285714" y2="62" class="stem" />
<ellipse cx="510.0" cy="112" rx="8" ry="6" class="filled-note" transform="rotate(-20 510.0 112)" />
<line x1="503.0" y1="112" x2="503.0" y2="136" class="stem" />
<ellipse cx="696.2857142857142" cy="112" rx="8" ry="6" class="filled-note" transform="rotate(-20 696.2857142857142 112)" />
<line x1="689.2857142857142" y1="112" x2="689.2857142857142" y2="136" class="stem" />
</svg>
